# xmcd
#
# Track frame offsets:
#	150
#	17311
#	37668
#	57079
#	70736
#	87836
#	101156
#	118838
#
# Disc length: 1866 seconds
#
# Revision: 0
# Processed by: cddbd v1.5.2PL0 Copyright (c) Steve Scherf et al.
# Submitted via: EasyCDDAExtractor 16.0.9.1
#
DISCID=58074808
DTITLE=Los Terricolas - La Mejor... Coleccion CD2
DYEAR=1900
DGENRE=
TTITLE0=De Habernos Conocido
TTITLE1=Te Juro Que Te Amo
TTITLE2=Luto En Mi Alma
TTITLE3=Evitame La Pena
TTITLE4=Lloraras
TTITLE5=La Loca Eres Tu
TTITLE6=Cara a Cara
TTITLE7=Echame A Mi La Culpa
EXTD=
EXTT0=
EXTT1=
EXTT2=
EXTT3=
EXTT4=
EXTT5=
EXTT6=
EXTT7=
PLAYORDER=
